# xmcd CD database file
#
# Track frame offsets:
#	150
#	22783
#	44677
#	69432
#	80984
#	104458
#	126127
#	148764
#	169201
#	189087
#	201256
#	217812
#
# Disc length: 3054 seconds
#
# Revision: 12
# Processed by: cddbd v1.5.1PL2 Copyright (c) Steve Scherf et al.
# Submitted via: CDex 1.51
#
DISCID=ab0bec0c
DTITLE=Christophe Goze - Secret Garden
DYEAR=1900
DGENRE=Jazz
TTITLE0=Au Bord De Toi
TTITLE1=That Smile On Your Face
TTITLE2=Secret Garden
TTITLE3=Good Morning
TTITLE4=Tell Me Why
TTITLE5=Anything We Want
TTITLE6=10 By Any Measure
TTITLE7=Just Like You
TTITLE8=Sweet Dream
TTITLE9=Memory
TTITLE10=I'm Sorry
TTITLE11=Au Bord De Toi (Part II)
EXTD=
EXTT0=
EXTT1=
EXTT2=
EXTT3=
EXTT4=
EXTT5=
EXTT6=
EXTT7=
EXTT8=
EXTT9=
EXTT10=
EXTT11=
PLAYORDER=
